<svg xmlns="http://www.w3.org/2000/svg"  viewBox="0 0 48 48" width="48px" height="48px"><path fill="#ffcc80" d="M11.333,26.833l12.841-12.243l16.885,17.057L29.423,43.283c-2.297,2.297-6.056,2.258-8.397-0.083 l-9.161-8.181C9.521,32.674,9.482,28.916,11.333,26.833z"/><path fill="#ffcc80" d="M23.381,19.626c1.172,1.172,3.071,1.172,4.243,0l9.485-9.485c1.172-1.172,1.172-3.071,0-4.243l0,0 c-1.172-1.172-3.071-1.172-4.243,0l-9.485,9.485C22.209,16.555,22.209,18.455,23.381,19.626L23.381,19.626z"/><path fill="#ffcc80" d="M26.085,25.386c1.172,1.172,3.071,1.172,4.243,0l4.243-4.243c1.172-1.172,1.172-3.07,0-4.243l0,0 c-1.171-1.171-3.071-1.172-4.243,0l-4.243,4.243C24.914,22.315,24.914,24.214,26.085,25.386L26.085,25.386z"/><path fill="#ffcc80" d="M29.6 30.346c1.172 1.172 3.071 1.172 4.243 0l4.243-4.243c1.172-1.172 1.172-3.07 0-4.243l0 0c-1.171-1.171-3.071-1.172-4.243 0L29.6 26.104C28.428 27.275 28.428 29.175 29.6 30.346L29.6 30.346zM32.604 35.858c1.172 1.172 3.07 1.172 4.243 0l4.243-4.243c1.172-1.172 1.172-3.07 0-4.243l0 0c-1.171-1.171-3.071-1.172-4.243 0l-4.243 4.243C31.433 32.787 31.433 34.686 32.604 35.858L32.604 35.858zM10.019 22.334c-.074-1.383-.531-2.779-1.252-3.973L7.19 15.759c-.311-.508-.235-1.152.176-1.563l.477-.477c1.26-1.26 3.513-.684 4.428.231l.984.984c2 2 3.647 4.287 4.425 6.99l1.958 5.01-9.616 3.739L10.019 22.334z"/><g><path fill="#f2a25a" d="M30.452 16.798l-2.828 2.828c-.39.39-.391 1.023 0 1.414s1.024.39 1.414 0L30.452 16.798zM33.987 21.748l-2.828 2.828c-.39.39-.391 1.023 0 1.414s1.024.39 1.414 0L33.987 21.748zM36.847 27.364l-2.828 2.828c-.39.39-.391 1.023 0 1.414.391.391 1.024.39 1.414 0L36.847 27.364z"/></g><g><path fill="#0288d1" d="M19 10c-.552 0-1-.448-1-1V3c0-.552.448-1 1-1s1 .448 1 1v6C20 9.552 19.552 10 19 10zM24 11c-.256 0-.512-.098-.707-.293-.391-.391-.391-1.023 0-1.414l4-4c.391-.391 1.023-.391 1.414 0s.391 1.023 0 1.414l-4 4C24.512 10.902 24.256 11 24 11zM14 11c-.256 0-.512-.098-.707-.293l-4-4c-.391-.391-.391-1.023 0-1.414s1.023-.391 1.414 0l4 4c.391.391.391 1.023 0 1.414C14.512 10.902 14.256 11 14 11z"/></g></svg>