<svg xmlns="http://www.w3.org/2000/svg"  viewBox="0 0 48 48" width="48px" height="48px"><path fill="#64b5f6" d="M43.992,12H3.999c-0.552,0-1-0.447-1-1V4c0-0.553,0.448-1,1-1h39.993c0.553,0,1,0.447,1,1v7	C44.992,11.553,44.545,12,43.992,12z M4.999,10h37.993V5H4.999V10z"/><path fill="#64b5f6" d="M3.999,20c-0.265,0-0.524-0.105-0.711-0.293S2.99,19.266,2.99,19l0-8c0-0.553,0.448-1,1-1	c0.265,0,0.524,0.105,0.711,0.293S4.999,10.734,4.999,11l0,8C4.999,19.553,4.551,20,3.999,20z"/><path fill="#64b5f6" d="M44,20c-0.266,0-0.524-0.105-0.712-0.293S42.991,19.265,42.991,19l0.001-8c0-0.553,0.448-1,1-1	c0.266,0,0.524,0.105,0.712,0.293s0.297,0.442,0.297,0.707L45,19C45,19.553,44.552,20,44,20z"/><path fill="#64b5f6" d="M4.436,11.5c-0.23,0-0.461-0.079-0.649-0.24c-0.42-0.359-0.469-0.99-0.11-1.41l5.562-6.5	c0.358-0.419,0.99-0.469,1.41-0.109c0.42,0.359,0.469,0.99,0.11,1.41l-5.562,6.5C4.999,11.381,4.718,11.5,4.436,11.5z"/><path fill="#64b5f6" d="M16.122,11.5c-0.254,0-0.509-0.097-0.704-0.29l-6.562-6.5C8.464,4.321,8.461,3.689,8.85,3.296	c0.388-0.393,1.022-0.396,1.414-0.006l6.562,6.5c0.393,0.389,0.396,1.021,0.007,1.414C16.637,11.401,16.379,11.5,16.122,11.5z"/><path fill="#64b5f6" d="M17.434,11.5c-0.257,0-0.515-0.099-0.71-0.296c-0.389-0.393-0.386-1.025,0.007-1.414l6.562-6.5	c0.393-0.389,1.025-0.386,1.414,0.006c0.389,0.393,0.386,1.025-0.007,1.414l-6.562,6.5C17.943,11.403,17.688,11.5,17.434,11.5z"/><path fill="#64b5f6" d="M30.119,11.5c-0.254,0-0.509-0.097-0.704-0.29l-6.561-6.5c-0.393-0.389-0.396-1.021-0.007-1.414	c0.389-0.393,1.021-0.396,1.414-0.006l6.562,6.5c0.392,0.389,0.395,1.021,0.006,1.414C30.634,11.401,30.377,11.5,30.119,11.5z"/><path fill="#64b5f6" d="M31.432,11.5c-0.258,0-0.515-0.099-0.71-0.296c-0.389-0.393-0.386-1.025,0.006-1.414l6.562-6.5	c0.394-0.39,1.026-0.386,1.414,0.006c0.389,0.393,0.386,1.025-0.006,1.414l-6.562,6.5C31.94,11.403,31.686,11.5,31.432,11.5z"/><path fill="#64b5f6" d="M43.117,11.5c-0.281,0-0.563-0.119-0.76-0.35l-5.562-6.5c-0.359-0.42-0.31-1.051,0.109-1.41	c0.419-0.357,1.052-0.31,1.41,0.109l5.562,6.5c0.359,0.42,0.31,1.051-0.109,1.41C43.579,11.421,43.348,11.5,43.117,11.5z"/><rect width="10" height="17" x="3" y="22" fill="#78909c"/><rect width="42" height="6" x="3" y="39" fill="#6d4c41"/><rect width="10" height="17" x="35" y="22" fill="#78909c"/><rect width="2" height="14" x="23" y="25" fill="#212121"/><path fill="#212121" d="M21.001,28c-0.323,0-0.64-0.156-0.833-0.445c-0.306-0.46-0.182-1.08,0.277-1.387l6-4	c0.46-0.307,1.081-0.183,1.387,0.277c0.307,0.46,0.183,1.08-0.277,1.387l-6,4C21.384,27.945,21.191,28,21.001,28z"/><circle cx="40" cy="27" r="3" fill="#212121"/><circle cx="40" cy="27" r="1" fill="#78909c"/><circle cx="40" cy="34" r="3" fill="#212121"/><circle cx="40" cy="34" r="1" fill="#78909c"/><circle cx="8" cy="27" r="3" fill="#212121"/><circle cx="27" cy="23" r="2" fill="#212121"/><circle cx="8" cy="27" r="1" fill="#78909c"/><circle cx="8" cy="34" r="3" fill="#212121"/><circle cx="8" cy="34" r="1" fill="#78909c"/></svg>